<?xml version="1.0" standalone="no"?>
<!DOCTYPE svg PUBLIC "-//W3C//DTD SVG 20010904//EN"
 "http://www.w3.org/TR/2001/REC-SVG-20010904/DTD/svg10.dtd">
<svg version="1.0" xmlns="http://www.w3.org/2000/svg"
 width="300.000000pt" height="300.000000pt" viewBox="0 0 300.000000 300.000000"
 preserveAspectRatio="xMidYMid meet">
<metadata>
Created by potrace 1.14, written by Peter Selinger 2001-2017
</metadata>
<g transform="translate(0.000000,300.000000) scale(0.100000,-0.100000)"
fill="#000000" stroke="none">
<path d="M565 2802 c-6 -5 -48 -25 -95 -47 -126 -57 -196 -89 -282 -129 -42
-20 -82 -36 -88 -36 -14 0 -7 -23 30 -105 15 -33 37 -80 48 -105 11 -25 39
-85 62 -135 23 -49 56 -119 72 -155 36 -80 54 -118 112 -244 25 -54 46 -100
46 -102 0 -1 23 -51 50 -109 28 -58 50 -108 50 -110 0 -1 19 -43 42 -92 23
-48 42 -90 43 -93 0 -3 12 -30 27 -60 14 -30 37 -80 51 -110 14 -30 53 -116
87 -190 34 -74 68 -148 75 -165 7 -16 36 -79 64 -138 28 -60 51 -110 51 -112
0 -3 20 -46 44 -97 43 -92 63 -135 116 -253 l27 -60 301 0 c181 1 305 5 310
10 5 6 49 100 99 210 51 110 106 232 124 270 17 39 47 104 66 145 44 94 66
144 68 150 1 3 17 39 37 80 19 41 46 98 58 125 39 87 76 167 119 258 22 48 41
89 41 91 0 3 22 51 49 108 26 56 65 141 86 188 21 47 62 136 92 198 29 63 53
115 53 117 0 3 27 63 111 243 21 45 48 106 60 135 12 28 26 56 31 62 18 20 6
42 -32 59 -22 9 -41 16 -43 14 -2 -2 -12 4 -21 12 -10 8 -27 16 -39 17 -12 2
-24 7 -27 11 -3 4 -34 21 -70 36 -138 61 -216 97 -233 107 -23 13 -20 16 -51
-53 -28 -61 -57 -126 -113 -248 -19 -41 -46 -99 -60 -130 -14 -30 -38 -84 -55
-120 -16 -36 -29 -66 -28 -68 0 -1 -8 -19 -19 -40 -19 -36 -53 -108 -107 -227
-15 -33 -28 -62 -29 -65 -1 -5 -14 -33 -101 -219 -24 -51 -44 -95 -44 -96 0
-5 -89 -198 -100 -217 -6 -10 -10 -25 -10 -33 0 -8 -4 -15 -10 -15 -5 0 -10
-5 -10 -11 0 -10 -16 -48 -73 -169 -17 -36 -31 -67 -32 -70 -1 -3 -13 -31 -28
-64 -15 -32 -27 -62 -27 -67 0 -5 -4 -9 -9 -9 -5 0 -11 -10 -13 -22 -5 -33
-22 -31 -37 4 -16 36 -74 163 -114 248 -14 30 -35 78 -47 105 -13 28 -65 142
-116 254 -52 111 -94 204 -94 206 0 2 -23 52 -51 112 -28 59 -60 128 -71 153
-11 25 -33 72 -48 105 -52 111 -92 199 -192 420 -165 363 -161 356 -183 337z"/>
</g>
</svg>
